<svg width="46" height="106" viewBox="0 0 46 106" fill="none" xmlns="http://www.w3.org/2000/svg">
<path d="M26 3C26 1.34315 24.6569 0 23 0C21.3431 0 20 1.34315 20 3H26ZM20.8787 105.121C22.0503 106.293 23.9497 106.293 25.1213 105.121L44.2132 86.0294C45.3848 84.8579 45.3848 82.9584 44.2132 81.7868C43.0416 80.6152 41.1421 80.6152 39.9706 81.7868L23 98.7574L6.02944 81.7868C4.85786 80.6152 2.95837 80.6152 1.7868 81.7868C0.615224 82.9584 0.615224 84.8579 1.7868 86.0294L20.8787 105.121ZM20 3L20 103H26L26 3H20Z" fill="white"/>
</svg>
